<svg width="48" height="48" viewBox="0 0 48 48" fill="none" xmlns="http://www.w3.org/2000/svg">
<path fill-rule="evenodd" clip-rule="evenodd" d="M24 48C37.2544 48 48 37.2544 48 24C48 10.7456 37.2553 0 24 0C10.7447 0 0 10.7447 0 24C0 37.2553 10.7456 48 24 48ZM34.71 31.2844C34.8454 31.0418 34.9177 30.7691 34.92 30.4912L34.9191 17.5087C34.919 17.1673 34.8133 16.8342 34.6162 16.5553L26.9419 23.4281L34.71 31.2844ZM34.3069 16.2309L23.9944 23.7928L13.6875 16.2384C13.9756 15.9937 14.3407 15.8582 14.7188 15.8559H33.2756C33.6527 15.8563 34.0177 15.989 34.3069 16.2309ZM23.9944 26.0672L26.1262 24.1594L33.8991 32.0231C33.7034 32.1052 33.4934 32.1476 33.2812 32.1478H14.7178C14.5053 32.1476 14.295 32.1052 14.0991 32.0231L21.8691 24.1631L23.9944 26.0672ZM13.0772 17.5134C13.0776 17.1743 13.182 16.8435 13.3762 16.5656L21.0534 23.4375L13.2872 31.2844C13.1515 31.0419 13.0793 30.7691 13.0772 30.4912V17.5134Z" fill="#FBBA2A"/>
</svg>
