<svg width="48" height="48" viewBox="0 0 48 48" fill="none" xmlns="http://www.w3.org/2000/svg">
<path fill-rule="evenodd" clip-rule="evenodd" d="M24 48C37.2548 48 48 37.2548 48 24C48 10.7452 37.2548 0 24 0C10.7452 0 0 10.7452 0 24C0 37.2548 10.7452 48 24 48ZM32.6928 34.3746C32.6928 34.3731 34.8333 32.6335 34.8333 32.6335C35.0514 32.473 35.2317 32.2667 35.3615 32.0291C35.4913 31.7915 35.5675 31.5283 35.5847 31.2581C35.6019 30.9878 35.5597 30.7171 35.4611 30.4649C35.3624 30.2128 35.2098 29.9853 35.0138 29.7984C34.9465 29.7341 31.582 27.2127 31.4887 27.1637C31.1801 26.9993 30.8313 26.9256 30.4826 26.951C30.1339 26.9765 29.7995 27.1001 29.518 27.3076L27.7876 28.6601C27.3395 28.4777 26.9009 28.273 26.4733 28.0466C25.1653 27.3907 23.9714 26.5285 22.9375 25.493C21.7608 24.3185 20.7563 22.9833 19.954 21.5272C19.7214 21.0871 19.5164 20.649 19.3389 20.2129L20.693 18.4825C20.9003 18.2007 21.0237 17.8659 21.0489 17.517C21.074 17.168 21 16.819 20.8353 16.5103C20.7863 16.4185 18.2664 13.0541 18.2022 12.9852C18.015 12.7893 17.7873 12.6368 17.5349 12.5383C17.2826 12.4398 17.0117 12.3978 16.7414 12.4151C16.4711 12.4325 16.2078 12.5088 15.9701 12.6387C15.7324 12.7687 15.5261 12.9491 15.3655 13.1673C15.3655 13.1673 13.6259 15.3062 13.6259 15.3078C10.4221 19.1251 14.2777 23.813 16.8986 26.6573C17.2535 27.0429 18.1715 27.9762 19.0987 28.9018C20.0244 29.8275 20.9577 30.747 21.3432 31.102C24.1875 33.7213 28.8754 37.5769 32.6928 34.3746Z" fill="#FBBA2A"/>
</svg>
