<svg width="48" height="48" viewBox="0 0 48 48" fill="none" xmlns="http://www.w3.org/2000/svg">
<path fill-rule="evenodd" clip-rule="evenodd" d="M48 24C48 37.2548 37.2548 48 24 48C10.7452 48 0 37.2548 0 24C0 10.7452 10.7452 0 24 0C37.2548 0 48 10.7452 48 24ZM24.7852 37.3526H24.7911C32.6595 37.3494 39.059 30.9483 39.0621 23.0816C39.0636 19.2684 37.5806 15.6829 34.8862 12.9855C32.1918 10.2879 28.6086 8.8017 24.7909 8.80005C16.9248 8.80005 10.5228 15.2017 10.5196 23.0703C10.5186 25.5855 11.1757 28.0406 12.4246 30.2049L10.4 37.6L17.9653 35.6155C20.0498 36.7525 22.3967 37.3517 24.7852 37.3526ZM18.749 33.289L18.3159 33.0319L13.8265 34.2096L15.0248 29.8325L14.7427 29.3837C13.5554 27.4952 12.9283 25.3124 12.9292 23.0711C12.9318 16.5312 18.2529 11.2105 24.7957 11.2105C27.964 11.2116 30.9422 12.4469 33.1817 14.689C35.4212 16.9311 36.6538 19.9113 36.6525 23.0807C36.6499 29.6212 31.3288 34.9424 24.7911 34.9424H24.7863C22.6578 34.9416 20.5702 34.3697 18.749 33.289ZM31.9808 26.4752C31.9091 26.3555 31.7411 26.2743 31.4924 26.1541C31.4321 26.125 31.367 26.0935 31.2974 26.0586C30.9408 25.8802 29.1877 25.0176 28.8607 24.8985C28.5339 24.7796 28.2961 24.7201 28.0584 25.077C27.8208 25.4339 27.1374 26.2372 26.9294 26.4752C26.7213 26.7131 26.5133 26.743 26.1569 26.5644C26.0986 26.5353 26.0192 26.5008 25.9212 26.4583L25.9209 26.4582C25.4188 26.2403 24.4286 25.8107 23.2892 24.7945C22.2292 23.849 21.5135 22.6813 21.3055 22.3243C21.0975 21.9673 21.2833 21.7744 21.4619 21.5966C21.5682 21.4907 21.6901 21.3423 21.8121 21.1937L21.814 21.1914C21.8756 21.1164 21.9372 21.0414 21.9967 20.9718C22.148 20.7952 22.2136 20.6613 22.3027 20.4797L22.3032 20.4786C22.319 20.4464 22.3355 20.4127 22.3533 20.377C22.4722 20.1389 22.4128 19.9308 22.3236 19.7523C22.264 19.6328 21.9249 18.8075 21.6181 18.0605C21.4664 17.6911 21.3225 17.3408 21.2242 17.1046C20.9686 16.4907 20.7095 16.4922 20.5017 16.4934C20.4742 16.4936 20.4475 16.4937 20.4219 16.4924C20.2141 16.482 19.9761 16.4798 19.7384 16.4798C19.5007 16.4798 19.1144 16.5691 18.7875 16.9261C18.7666 16.9489 18.7432 16.9739 18.7177 17.0011C18.3463 17.3974 17.5395 18.2583 17.5395 19.9008C17.5395 21.6467 18.8036 23.3335 18.9926 23.5857L18.9927 23.5858L18.9955 23.5896C19.0072 23.6052 19.0281 23.6352 19.058 23.6781L19.0582 23.6784C19.4857 24.2914 21.7447 27.5307 25.0871 28.9739C25.9379 29.3414 26.602 29.5608 27.1199 29.7251C27.9741 29.9965 28.7516 29.9582 29.3659 29.8664C30.051 29.764 31.4756 29.0038 31.7729 28.1709C32.0699 27.3378 32.0699 26.6239 31.9808 26.4752Z" fill="#FBBA2A"/>
</svg>
